<svg width="24" height="24" viewBox="0 0 24 24" fill="none" xmlns="http://www.w3.org/2000/svg">
<path d="M1.33325 9.33334L7.58658 15.3333V9.33334L4.91992 1.14667C4.78325 0.72534 4.13592 0.72534 3.99992 1.14667L1.33325 9.33334Z" fill="#E2E2E2"/>
<path d="M22.6667 9.33334L16.4133 15.3333V9.33334L19.08 1.14667C19.2167 0.72534 19.864 0.72534 20 1.14667L22.6667 9.33334Z" fill="#E2E2E2"/>
<path d="M12 22.92L2 9.33334H22L12 22.92Z" fill="#E2E2E2"/>
<path d="M11.9999 22.92L7.58659 9.33334H1.33325L3.99992 16.6667L11.9999 22.92Z" fill="#EDEDED"/>
<path d="M12 22.92L16.4133 9.33334H22.6667L20 16.6667L12 22.92Z" fill="#EDEDED"/>
<path d="M1.33333 9.33334L0.0666658 13.44C-0.0533342 13.8167 0.0666658 14.24 0.399999 14.48L12.0133 22.92L1.33333 9.33334Z" fill="white"/>
<path d="M22.6667 9.33334L23.9333 13.44C24.0533 13.8167 23.9333 14.24 23.6 14.48L12 22.92L22.6667 9.33334Z" fill="white"/>
</svg>
