<svg width="48" height="48" viewBox="0 0 48 48" fill="none" xmlns="http://www.w3.org/2000/svg">
<path d="M6 38.5714V9.42857C6 7.53514 7.89635 6 10.2353 6H37.7647C40.1036 6 42 7.53 42 9.42343C42 16.296 42 31.7014 42 38.5749C42 40.4691 40.1036 42 37.7647 42H10.2353C7.89635 42 6 40.4649 6 38.5714Z" fill="white"/>
<path d="M39.3263 22.4L25.6 8.67368C25.1789 8.25263 24.5895 8 24 8C23.4105 8 22.8211 8.25263 22.4 8.67368L19.4526 11.6211L22.9053 15.0737C23.2421 14.9053 23.5789 14.8211 24 14.8211C25.4316 14.8211 26.5263 15.9158 26.5263 17.3474C26.5263 17.7684 26.4421 18.1053 26.2737 18.4421L29.6421 21.8105C29.9789 21.6421 30.3158 21.5579 30.7368 21.5579C32.1684 21.5579 33.2632 22.6526 33.2632 24.0842C33.2632 25.5158 32.1684 26.6105 30.7368 26.6105C29.3053 26.6105 28.2105 25.5158 28.2105 24.0842C28.2105 23.6632 28.2947 23.3263 28.4632 22.9895L25.0947 19.6211C25.0105 19.6211 24.9263 19.7053 24.8421 19.7053V28.4632C25.8526 28.8 26.5263 29.7263 26.5263 30.8211C26.5263 32.2526 25.4316 33.3474 24 33.3474C22.5684 33.3474 21.4737 32.2526 21.4737 30.8211C21.4737 29.7263 22.1474 28.8 23.1579 28.4632V19.6211C22.1474 19.2842 21.4737 18.3579 21.4737 17.2632C21.4737 16.8421 21.5579 16.5053 21.7263 16.1684L18.2737 12.7158L8.67368 22.4C8.25263 22.8211 8 23.4105 8 24C8 24.5895 8.25263 25.1789 8.67368 25.6L22.4 39.3263C22.8211 39.7474 23.4105 40 24 40C24.5895 40 25.1789 39.7474 25.6 39.3263L39.3263 25.6C39.7474 25.1789 40 24.5895 40 24C40 23.4105 39.7474 22.8211 39.3263 22.4Z" fill="#F4511E"/>
</svg>
