<svg width="48" height="48" viewBox="0 0 48 48" fill="none" xmlns="http://www.w3.org/2000/svg">
<path d="M6 38.5714V9.42857C6 7.53514 7.89635 6 10.2353 6H37.7647C40.1036 6 42 7.53 42 9.42343C42 16.296 42 31.7014 42 38.5749C42 40.4691 40.1036 42 37.7647 42H10.2353C7.89635 42 6 40.4649 6 38.5714Z" fill="#7E57C2"/>
<path d="M26.8834 36V22.3279C26.8834 22.3279 27.7653 19.0566 16.0211 23.6664C16 23.7246 16 11.0238 16 11.0238L19.8372 11V19.1377C19.8372 19.1377 30.5808 14.8705 30.5808 22.3738V35.9992L26.8834 36ZM29.0698 15.9254H25.0002C26.4648 14.1189 27.7913 11.0238 27.7913 11.0238H32C31.9992 11.0246 31.279 13.041 29.0698 15.9254ZM16.0691 35.9762V28.191L19.9299 32.0844L16.0691 35.9762Z" fill="white"/>
</svg>
