<svg width="48" height="48" viewBox="0 0 48 48" fill="none" xmlns="http://www.w3.org/2000/svg">
<rect x="6" y="6" width="36" height="36" fill="#4AC2F5"/>
<g clip-path="url(#clip0)">
<path fill-rule="evenodd" clip-rule="evenodd" d="M23.4999 21.18C22.8846 21.18 22.2945 21.4244 21.8594 21.8595C21.4244 22.2946 21.1799 22.8847 21.1799 23.5C21.1799 24.1153 21.4244 24.7054 21.8594 25.1405C22.2945 25.5756 22.8846 25.82 23.4999 25.82C24.1152 25.82 24.7053 25.5756 25.1404 25.1405C25.5755 24.7054 25.8199 24.1153 25.8199 23.5C25.8199 22.8847 25.5755 22.2946 25.1404 21.8595C24.7053 21.4244 24.1152 21.18 23.4999 21.18Z" fill="white"/>
<path d="M19.1665 20.9999C17.4333 24.0018 16.2259 27.1433 15.8098 29.7333C15.3937 32.3233 15.8031 34.1497 16.9478 34.8106C18.0925 35.4715 19.8789 34.9128 21.9139 33.2575C23.9488 31.6022 26.0657 28.9857 27.7989 25.9838C29.532 22.9819 30.7395 19.8404 31.1555 17.2504C31.5716 14.6604 31.1623 12.8341 30.0175 12.1732C28.8728 11.5122 27.0865 12.0709 25.0515 13.7262C23.0165 15.3816 20.8996 17.998 19.1665 20.9999V20.9999Z" stroke="white" stroke-width="1.3"/>
<path d="M36.26 23.2639C36.26 26.0149 30.5423 28.2479 23.5 28.2479C16.4576 28.2479 10.74 26.0149 10.74 23.2639C10.74 20.513 16.4576 18.28 23.5 18.28C30.5423 18.28 36.26 20.513 36.26 23.2639Z" stroke="white" stroke-width="1.3"/>
<path d="M16.9532 12.1892C15.8084 12.8501 15.3991 14.6765 15.8152 17.2665C16.2312 19.8565 17.4387 22.998 19.1718 25.9999C20.905 29.0018 23.0219 31.6182 25.0569 33.2735C27.0918 34.9289 28.8782 35.4875 30.0229 34.8266C31.1676 34.1657 31.577 32.3394 31.1609 29.7494C30.7448 27.1594 29.5374 24.0179 27.8043 21.016C26.0711 18.014 23.9542 15.3976 21.9192 13.7423C19.8843 12.087 18.0979 11.5283 16.9532 12.1892V12.1892Z" stroke="white" stroke-width="1.3"/>
</g>
<defs>
<clipPath id="clip0">
<rect width="29" height="29" fill="white" transform="translate(9 9)"/>
</clipPath>
</defs>
</svg>
