<svg width="48" height="48" viewBox="0 0 48 48" fill="none" xmlns="http://www.w3.org/2000/svg">
<rect x="6" y="6" width="36" height="36" fill="#3B9C45"/>
<path d="M23.7644 8C23.3125 8 22.8654 8.11058 22.476 8.33173L10.2788 15.375C9.49039 15.8269 9 16.6923 9 17.601V30.375C9 31.2981 9.49039 32.149 10.2788 32.6058L13.4808 34.4519C15.0337 35.2115 15.5865 35.2115 16.2837 35.2115C18.5865 35.2115 19.9038 33.8221 19.9038 31.4087V18.2308C19.9038 18.0337 19.7452 17.8702 19.5481 17.8702H18.0096C17.7981 17.8702 17.649 18.0337 17.649 18.2308V31.3942C17.649 32.4808 16.5337 33.5385 14.726 32.6394L11.375 30.7067C11.25 30.6442 11.1779 30.5096 11.1779 30.375V17.6154C11.1779 17.4663 11.25 17.3413 11.375 17.2644L23.5721 10.2308C23.6827 10.1538 23.8317 10.1538 23.9567 10.2308L36.1538 17.2644C36.274 17.3413 36.351 17.4663 36.351 17.601V30.375C36.351 30.5096 36.274 30.6442 36.1635 30.7067L23.9567 37.7596C23.8413 37.8221 23.6827 37.8221 23.5721 37.7596L20.4327 35.9038C20.3462 35.8413 20.226 35.8269 20.1394 35.8798C19.2644 36.3702 19.1058 36.4327 18.2933 36.7163C18.0962 36.774 17.7885 36.899 18.4038 37.2452L22.476 39.6587C22.8702 39.8798 23.3125 40 23.7596 40C24.2115 40 24.6538 39.8798 25.0481 39.6587L37.2596 32.6058C38.0481 32.149 38.5385 31.2981 38.5385 30.375V17.6154C38.5385 16.6923 38.0481 15.8413 37.2596 15.3846L25.0481 8.33173C24.6587 8.11058 24.2115 8 23.7644 8ZM27.0433 17.851C23.5625 17.851 21.4808 19.3269 21.4808 21.7885C21.4808 24.4615 23.5481 25.1971 26.8942 25.5288C30.8942 25.9231 31.2019 26.5192 31.2019 27.3029C31.2019 28.6587 30.1106 29.2356 27.5385 29.2356C24.2981 29.2356 23.5865 28.4231 23.351 26.8221C23.3269 26.6538 23.1779 26.5288 23.0096 26.5288H21.4183C21.2212 26.5288 21.0769 26.6923 21.0769 26.875C21.0769 28.9327 22.1923 31.375 27.5385 31.375C31.399 31.375 33.6154 29.851 33.6154 27.1923C33.6154 24.5625 31.8317 23.8558 28.0865 23.351C24.2837 22.8606 23.9038 22.601 23.9038 21.7163C23.9038 20.976 24.2356 20.0048 27.0433 20.0048C29.5433 20.0048 30.476 20.5481 30.8558 22.2308C30.8942 22.3942 31.0288 22.5144 31.2019 22.5144H32.7933C32.8894 22.5144 32.976 22.4663 33.0481 22.3942C33.1106 22.3317 33.149 22.2356 33.1346 22.1202C32.8894 19.2163 30.9567 17.851 27.0433 17.851Z" fill="white"/>
</svg>
