<svg width="48" height="48" viewBox="0 0 48 48" fill="none" xmlns="http://www.w3.org/2000/svg">
<rect x="6" y="6" width="36" height="36" fill="#4AC2F5"/>
<path fill-rule="evenodd" clip-rule="evenodd" d="M24 20C23.2044 20 22.4413 20.3687 21.8787 21.0251C21.3161 21.6815 21 22.5717 21 23.5C21 24.4283 21.3161 25.3185 21.8787 25.9749C22.4413 26.6313 23.2044 27 24 27C24.7956 27 25.5587 26.6313 26.1213 25.9749C26.6839 25.3185 27 24.4283 27 23.5C27 22.5717 26.6839 21.6815 26.1213 21.0251C25.5587 20.3687 24.7956 20 24 20Z" fill="white"/>
<path d="M18.6578 20.8619C16.4657 24.6587 14.9386 28.632 14.4123 31.9078C13.8861 35.1836 14.4038 37.4936 15.8517 38.3295C17.2995 39.1654 19.5588 38.4588 22.1326 36.3652C24.7064 34.2715 27.3839 30.9623 29.576 27.1656C31.768 23.3688 33.2952 19.3955 33.8214 16.1197C34.3476 12.8439 33.8299 10.5339 32.3821 9.69801C30.9342 8.86209 28.6749 9.56868 26.1011 11.6623C23.5273 13.756 20.8498 17.0652 18.6578 20.8619V20.8619Z" stroke="white" stroke-width="1.3"/>
<path d="M40 23.5C40 27.0877 32.8305 30 24 30C15.1695 30 8 27.0877 8 23.5C8 19.9123 15.1695 17 24 17C32.8305 17 40 19.9123 40 23.5Z" stroke="white" stroke-width="1.3"/>
<path d="M15.8583 9.71828C14.4104 10.5542 13.8927 12.8641 14.4189 16.1399C14.9452 19.4157 16.4723 23.3891 18.6644 27.1858C20.8564 30.9826 23.5339 34.2918 26.1077 36.3854C28.6815 38.4791 30.9408 39.1857 32.3887 38.3498C33.8365 37.5138 34.3542 35.2039 33.828 31.9281C33.3017 28.6523 31.7746 24.679 29.5825 20.8822C27.3905 17.0854 24.713 13.7762 22.1392 11.6826C19.5654 9.58896 17.3061 8.88237 15.8583 9.71828V9.71828Z" stroke="white" stroke-width="1.3"/>
</svg>
