<svg width="48" height="48" viewBox="0 0 48 48" fill="none" xmlns="http://www.w3.org/2000/svg">
<path d="M6 38.5714V9.42857C6 7.53514 7.89635 6 10.2353 6H37.7647C40.1036 6 42 7.53 42 9.42343C42 16.296 42 31.7014 42 38.5749C42 40.4691 40.1036 42 37.7647 42H10.2353C7.89635 42 6 40.4649 6 38.5714Z" fill="#F06292"/>
<path d="M35.3888 13.4256C34.5499 10.1359 29.0963 9.05484 23.9349 10.8885C20.8634 11.9798 17.5375 13.6928 15.1462 15.9292C12.3029 18.5888 11.85 20.9031 12.0366 21.87C12.6954 25.2822 17.3714 27.513 19.2932 29.1685V29.1787C18.7263 29.458 14.5783 31.5571 13.6076 33.7035C12.5831 35.9677 13.7709 37.5926 14.5569 37.8116C16.9928 38.489 19.4918 37.2706 20.8355 35.2671C22.1319 33.3332 22.0242 30.837 21.461 29.5944C22.2377 29.3894 23.1443 29.2975 24.295 29.432C27.5438 29.8116 28.1813 31.8401 28.0588 32.6892C27.9372 33.5383 27.2552 34.0051 27.0278 34.1461C26.7996 34.2872 26.7309 34.3363 26.7494 34.4403C26.7773 34.5925 26.8821 34.5869 27.077 34.5544C27.3443 34.5089 28.7826 33.864 28.8448 32.2967C28.9227 30.3071 27.0167 28.0819 23.6408 28.1394C22.2507 28.1635 21.3765 28.2953 20.7446 28.531C20.6982 28.4781 20.6499 28.4252 20.6017 28.3723C18.5147 26.1452 14.6562 24.5704 14.8195 21.5768C14.8789 20.4883 15.2575 17.6228 22.233 14.1466C27.9475 11.2987 32.5223 12.0828 33.313 13.819C34.4423 16.3004 30.8678 20.9115 24.9334 21.5768C22.672 21.8301 21.4814 20.9541 21.1854 20.6275C20.8736 20.2842 20.8272 20.2684 20.7112 20.3333C20.5219 20.4382 20.6416 20.7416 20.7112 20.9226C20.8884 21.3838 21.6159 22.2013 22.8548 22.6087C23.9451 22.9669 26.6 23.1627 29.8108 21.9211C33.4057 20.5291 36.2138 16.6595 35.3888 13.4256ZM20.0913 30.1883C20.3604 31.185 20.3307 32.1148 20.0533 32.9565C20.0226 33.0502 19.9883 33.142 19.9512 33.2339C19.9141 33.3249 19.8742 33.4158 19.8315 33.5049C19.6171 33.9503 19.3285 34.367 18.9759 34.7521C17.8994 35.9259 16.3961 36.3695 15.7521 35.9955C15.0562 35.5919 15.4051 33.9373 16.6523 32.6177C17.9941 31.1989 19.9252 30.2867 19.9252 30.2867L19.9224 30.2811C19.9781 30.2505 20.0347 30.2199 20.0913 30.1883Z" fill="white"/>
</svg>
