<svg width="200" height="200" viewBox="0 0 200 200" fill="none" xmlns="http://www.w3.org/2000/svg">
<g clip-path="url(#clip0)">
<path d="M99.9997 114.574C108.073 114.574 114.617 108.03 114.617 99.9567C114.617 91.8838 108.073 85.3393 99.9997 85.3393C91.9268 85.3393 85.3823 91.8838 85.3823 99.9567C85.3823 108.03 91.9268 114.574 99.9997 114.574Z" fill="white"/>
<path d="M100 129.905C143.318 129.905 178.435 116.496 178.435 99.9568C178.435 83.417 143.318 70.0089 100 70.0089C56.6816 70.0089 21.5652 83.417 21.5652 99.9568C21.5652 116.496 56.6816 129.905 100 129.905Z" stroke="white" stroke-width="8"/>
<path d="M74.0638 114.931C95.7229 152.445 124.893 176.153 139.217 167.883C153.541 159.613 147.594 122.498 125.935 84.9828C104.276 47.468 75.1058 23.7603 60.782 32.0302C46.4581 40.3001 52.4046 77.4158 74.0638 114.931Z" stroke="white" stroke-width="8"/>
<path d="M74.0638 84.9828C52.4046 122.498 46.4582 159.613 60.782 167.883C75.1058 176.153 104.276 152.445 125.935 114.931C147.594 77.4158 153.541 40.3 139.217 32.0302C124.893 23.7603 95.723 47.468 74.0638 84.9828Z" stroke="white" stroke-width="8"/>
</g>
<defs>
<clipPath id="clip0">
<rect width="164" height="145.914" fill="white" transform="translate(18 27)"/>
</clipPath>
</defs>
</svg>
