<svg width="200" height="200" viewBox="0 0 200 200" fill="none" xmlns="http://www.w3.org/2000/svg">
<path d="M131.635 130.731C137.687 130.105 142.278 124.888 142.07 118.627C141.861 112.366 136.643 107.357 130.383 107.357H129.965C123.496 107.566 118.487 112.992 118.695 119.461C118.904 122.592 120.156 125.305 122.035 127.183C114.939 141.166 104.087 151.392 87.8083 159.949C76.7474 165.792 65.2691 167.879 53.7907 166.418C44.3994 165.166 37.095 160.992 32.5037 154.105C25.8254 143.879 25.1993 132.818 30.8341 121.757C34.7993 113.827 41.0602 107.983 45.0255 105.061C44.1907 102.348 42.9385 97.757 42.3124 94.4178C12.0514 116.331 15.1818 145.966 24.3645 159.949C31.2515 170.383 45.2342 176.853 60.6777 176.853C64.8517 176.853 69.0256 176.436 73.1995 175.392C99.9128 170.175 120.156 154.314 131.635 130.731V130.731Z" fill="#764ABC"/>
<path d="M168.366 104.853C152.505 86.2786 129.131 76.0525 102.417 76.0525H99.0782C97.1999 72.2959 93.2346 69.7916 88.852 69.7916H88.4346C81.965 70.0003 76.9563 75.4264 77.165 81.896C77.3737 88.1569 82.5911 93.1656 88.852 93.1656H89.2694C93.8607 92.9569 97.826 90.0352 99.4956 86.0699H103.252C119.113 86.0699 134.139 90.6613 147.705 99.6352C158.139 106.522 165.652 115.496 169.826 126.348C173.374 135.114 173.166 143.67 169.409 150.975C163.565 162.036 153.757 168.088 140.818 168.088C132.47 168.088 124.539 165.583 120.365 163.705C118.07 165.792 113.896 169.131 110.974 171.218C119.948 175.392 129.131 177.688 137.896 177.688C157.931 177.688 172.748 166.627 178.383 155.566C184.435 143.462 184.018 122.592 168.366 104.853Z" fill="#764ABC"/>
<path d="M62.3474 134.279C62.5561 140.54 67.7735 145.549 74.0344 145.549H74.4518C80.9214 145.34 85.9302 139.914 85.7215 133.444C85.5128 127.183 80.2954 122.175 74.0344 122.175H73.6171C73.1997 122.175 72.5736 122.175 72.1562 122.383C63.5996 108.192 60.0518 92.7483 61.3039 76.0525C62.1387 63.5307 66.3127 52.6784 73.6171 43.7045C79.6693 35.9827 91.3563 32.2261 99.2868 32.0175C121.409 31.6001 130.8 59.1481 131.426 70.209C134.139 70.8351 138.73 72.296 141.861 73.3394C139.357 39.5305 118.487 22 98.452 22C79.6693 22 62.3474 35.5653 55.4604 55.6002C45.8604 82.3134 52.1213 107.983 63.8083 128.227C62.7648 129.688 62.1387 131.983 62.3474 134.279V134.279Z" fill="#764ABC"/>
</svg>
